<?xml version="1.0" encoding="utf-8"?>
<!-- Generator: Adobe Illustrator 20.0.0, SVG Export Plug-In . SVG Version: 6.00 Build 0)  -->
<svg version="1.1" id="Layer_2" xmlns="http://www.w3.org/2000/svg" xmlns:xlink="http://www.w3.org/1999/xlink" x="0px" y="0px"
	 viewBox="0 0 262.5 42.2" style="enable-background:new 0 0 262.5 42.2;" xml:space="preserve">
<style type="text/css">
	.st0{fill:#70CCD8;}
	.st1{fill:#FFFFFF;}
	.st2{enable-background:new    ;}
	.st3{fill:#F1F2F2;}
</style>
<title>Hedgehog_Logo_Header</title>
<rect x="14.4" y="15.5" class="st0" width="3.7" height="18.4"/>
<rect x="28.6" y="8.2" class="st0" width="3.7" height="25.7"/>
<rect x="35.6" y="8.2" class="st0" width="3.7" height="25.7"/>
<polygon class="st0" points="46.4,28.9 42.7,30 42.7,11 46.4,11 "/>
<polygon class="st0" points="25.2,28.9 21.5,30 21.5,11 25.2,11 "/>
<rect x="49.7" y="15.5" class="st0" width="3.7" height="18.4"/>
<path class="st1" d="M20.7,36.8c0.5,0,0.9-0.3,1-0.8v-2.3l0,0v-0.2c0-0.1,0.1-0.2,0.2-0.2l2.7-0.7h0.2c0.1,0.1,0.1,0.1,0.1,0.2v1.6
	l0,0c-0.5,0-0.9,0.3-1,0.8C23.8,35.7,24,36,24.5,36c0.5,0,0.9-0.3,1-0.8v-3.7c0-0.1-0.1-0.2-0.2-0.3c-0.1-0.1-0.2-0.1-0.3-0.1
	l-3.6,1c-0.2,0-0.3,0.2-0.3,0.4v2.8l0,0c-0.5,0-0.9,0.3-1,0.8c-0.1,0.3,0.1,0.6,0.4,0.7C20.6,36.8,20.6,36.8,20.7,36.8z"/>
<path class="st1" d="M42,36.8c0.5,0,0.9-0.3,1-0.8v-2.3l0,0v-0.2c0-0.1,0.1-0.2,0.2-0.2l2.7-0.7h0.2c0.1,0.1,0.1,0.1,0.1,0.2v1.6
	l0,0c-0.5,0-0.9,0.3-1,0.8c-0.1,0.5,0.1,0.8,0.6,0.8c0.5,0,0.9-0.3,1-0.8v-3.7c0-0.1-0.1-0.2-0.2-0.3c-0.1-0.1-0.2-0.1-0.3-0.1
	l-3.6,1c-0.2,0-0.3,0.2-0.3,0.4v2.8l0,0c-0.5,0-0.9,0.3-1,0.8C41.2,36.5,41.5,36.8,42,36.8z"/>
<path class="st1" d="M6.1,28c-1.6,1-3.4,1.4-5.2,1.2c0,0.4,0.6,2.3,3.3,3.5c2.2,0.8,4.5,1.2,6.9,1.2V22C10,24.4,8.3,26.5,6.1,28z
	 M10.2,29.1H9.3V30H8.6v-0.9H7.7v-0.7h0.9v-0.9h0.7v0.9h0.9V29.1z"/>
<circle class="st0" cx="0.6" cy="28.3" r="0.6"/>
<polygon class="st1" points="56.2,33.9 56.2,31.7 60,33.9 "/>
<g class="st2">
	<path class="st3" d="M69.1,23v10.9h-3.9V8.3h3.9v10.9h4.7V8.3h3.9v25.6h-3.9V23H69.1z"/>
</g>
<g class="st2">
	<path class="st3" d="M81.1,33.9V8.2h11v3.9H85v7h5.2V23H85v7h7.1v3.9H81.1z"/>
</g>
<g class="st2">
	<path class="st3" d="M106.9,27.8c0,1.7-0.6,3.1-1.8,4.3c-1.2,1.2-2.6,1.8-4.3,1.8h-6.1V8.2h6.1c1.7,0,3.1,0.6,4.3,1.8
		c1.2,1.2,1.8,2.6,1.8,4.3V27.8z M98.6,30.1h2.3c0.6,0,1.1-0.2,1.6-0.7s0.6-1,0.6-1.6V14.4c0-0.6-0.2-1.1-0.6-1.6s-0.9-0.7-1.5-0.7
		h-2.3V30.1z"/>
</g>
<g class="st2">
	<path class="st3" d="M116.4,34.2c-1.7,0-3.2-0.6-4.3-1.8c-1.2-1.2-1.8-2.6-1.8-4.3v-14c0-1.7,0.6-3.2,1.8-4.3
		c1.2-1.2,2.6-1.8,4.3-1.8c1.7,0,3.2,0.6,4.3,1.8c1.2,1.2,1.8,2.6,1.8,4.3V17h-4v-3c0-0.6-0.2-1.1-0.7-1.6c-0.4-0.4-1-0.7-1.6-0.7
		s-1.1,0.2-1.6,0.7s-0.6,1-0.6,1.6v14c0,0.6,0.2,1.1,0.6,1.6s1,0.6,1.6,0.6s1.1-0.2,1.6-0.6c0.4-0.4,0.7-0.9,0.7-1.6v-5h-2.1v-3.9
		h6.2v9c0,1.7-0.6,3.2-1.8,4.3C119.5,33.6,118.1,34.2,116.4,34.2z"/>
</g>
<g class="st2">
	<path class="st3" d="M125.9,33.9V8.2h11v3.9h-7.1v7h5.2V23h-5.2v7h7.1v3.9H125.9z"/>
</g>
<g class="st2">
	<path class="st3" d="M143.4,23v10.9h-3.9V8.3h3.9v10.9h4.7V8.3h3.9v25.6h-3.9V23H143.4z"/>
</g>
<g class="st2">
	<path class="st3" d="M161.5,7.9c1.7,0,3.2,0.6,4.3,1.8c1.2,1.2,1.8,2.6,1.8,4.3v14c0,1.7-0.6,3.2-1.8,4.3s-2.6,1.8-4.3,1.8
		c-1.7,0-3.2-0.6-4.3-1.8c-1.2-1.2-1.8-2.6-1.8-4.3v-14c0-1.7,0.6-3.2,1.8-4.3C158.3,8.5,159.8,7.9,161.5,7.9z M163.6,14
		c0-0.6-0.2-1.1-0.6-1.6s-1-0.6-1.6-0.6c-0.6,0-1.1,0.2-1.6,0.6s-0.7,1-0.7,1.6v14c0,0.6,0.2,1.1,0.7,1.6s1,0.6,1.6,0.6
		c0.6,0,1.1-0.2,1.6-0.6s0.6-1,0.6-1.6V14z"/>
</g>
<g class="st2">
	<path class="st3" d="M177.1,34.2c-1.7,0-3.2-0.6-4.3-1.8c-1.2-1.2-1.8-2.6-1.8-4.3v-14c0-1.7,0.6-3.2,1.8-4.3
		c1.2-1.2,2.6-1.8,4.3-1.8c1.7,0,3.2,0.6,4.3,1.8s1.8,2.6,1.8,4.3V17h-4v-3c0-0.6-0.2-1.1-0.7-1.6c-0.4-0.4-1-0.7-1.6-0.7
		c-0.6,0-1.1,0.2-1.6,0.7s-0.6,1-0.6,1.6v14c0,0.6,0.2,1.1,0.6,1.6s1,0.6,1.6,0.6c0.6,0,1.1-0.2,1.6-0.6c0.4-0.4,0.7-0.9,0.7-1.6v-5
		H177v-3.9h6.2v9c0,1.7-0.6,3.2-1.8,4.3C180.2,33.6,178.7,34.2,177.1,34.2z"/>
</g>
<g class="st2">
	<path class="st0" d="M192.7,33.9h-3.9V8.2h5.5l3.6,18.4l3.5-18.4h5.3v25.7h-3.9V17.8l-3.4,16.1h-3.1l-3.7-16.1V33.9z"/>
</g>
<g class="st2">
	<path class="st0" d="M216.3,34.2c-1.7,0-3.2-0.6-4.3-1.8c-1.2-1.2-1.8-2.6-1.8-4.3V8.3h3.8V28c0,0.6,0.2,1.1,0.7,1.6s1,0.6,1.6,0.6
		c0.6,0,1.1-0.2,1.6-0.6s0.6-1,0.6-1.6V8.3h4v19.8c0,1.7-0.6,3.2-1.8,4.3C219.4,33.6,218,34.2,216.3,34.2z"/>
</g>
<g class="st2">
	<path class="st0" d="M238.4,27.5c0,1.8-0.4,3.3-1.4,4.6c-0.6,0.9-1.5,1.5-2.7,1.8c-0.6,0.2-1.3,0.3-2.1,0.3c-1.5,0-2.8-0.4-3.8-1.1
		c-0.8-0.6-1.5-1.4-2-2.5c-0.5-1.1-0.8-2.3-0.8-3.6l3.7-0.3c0.2,1.5,0.6,2.6,1.2,3.2c0.5,0.5,1,0.7,1.6,0.7c0.8,0,1.5-0.4,2-1.3
		c0.3-0.4,0.4-1,0.4-1.7c0-1.1-0.5-2.1-1.5-3.2c-0.8-0.7-1.9-1.8-3.4-3.3c-1.3-1.2-2.2-2.4-2.7-3.3c-0.6-1.1-0.9-2.3-0.9-3.6
		c0-2.3,0.8-4.1,2.4-5.3c1-0.7,2.2-1.1,3.6-1.1c1.4,0,2.6,0.3,3.5,0.9c0.8,0.5,1.4,1.1,1.9,2c0.5,0.9,0.8,1.8,0.8,3l-3.7,0.7
		c-0.1-1.1-0.4-1.9-0.9-2.5c-0.4-0.4-0.9-0.6-1.5-0.6c-0.7,0-1.2,0.3-1.6,0.9c-0.3,0.5-0.5,1.1-0.5,1.9c0,1.2,0.5,2.4,1.5,3.6
		c0.4,0.5,1,1,1.7,1.6c0.9,0.8,1.5,1.3,1.8,1.6c1,1,1.7,1.9,2.2,2.8c0.2,0.4,0.4,0.8,0.6,1.2C238.2,26,238.4,26.8,238.4,27.5z"/>
</g>
<g class="st2">
	<path class="st0" d="M245.5,33.9h-3.9V8.3h3.9V33.9z"/>
</g>
<g class="st2">
	<path class="st0" d="M255,34.2c-1.7,0-3.2-0.6-4.3-1.8s-1.8-2.6-1.8-4.3v-14c0-1.7,0.6-3.2,1.8-4.3c1.2-1.2,2.6-1.8,4.3-1.8
		c1.7,0,3.2,0.6,4.3,1.8c1.2,1.2,1.8,2.6,1.8,4.3V17h-4v-3c0-0.6-0.2-1.1-0.7-1.6s-1-0.7-1.6-0.7c-0.6,0-1.1,0.2-1.6,0.7
		s-0.6,1-0.6,1.6v14c0,0.6,0.2,1.1,0.6,1.6s1,0.6,1.6,0.6c0.6,0,1.1-0.2,1.6-0.6s0.7-1,0.7-1.6v-3.5h4v3.6c0,1.7-0.6,3.2-1.8,4.3
		C258.2,33.6,256.7,34.2,255,34.2z"/>
</g>
<rect y="39.7" class="st3" width="261.3" height="2.5"/>
<rect class="st3" width="261.3" height="2.5"/>
</svg>
