<svg id="Isolation_Mode" data-name="Isolation Mode" xmlns="http://www.w3.org/2000/svg" viewBox="0 0 60 28.6"><defs><style>.cls-1{fill:#15292b;}</style></defs><title>Hedgehog_footer</title><rect class="cls-1" x="14.4" y="7.3" width="3.7" height="18.4"/><rect class="cls-1" x="28.6" width="3.7" height="25.7"/><rect class="cls-1" x="35.6" width="3.7" height="25.7"/><polygon class="cls-1" points="46.4 20.7 42.7 21.8 42.7 2.8 46.4 2.8 46.4 20.7"/><polygon class="cls-1" points="25.2 20.7 21.5 21.8 21.5 2.8 25.2 2.8 25.2 20.7"/><rect class="cls-1" x="49.7" y="7.3" width="3.7" height="18.4"/><path class="cls-1" d="M54.6,47.6a1.08,1.08,0,0,0,1-.8V44.5h0v-.2a.22.22,0,0,1,.2-.2l2.7-.7h.2a.35.35,0,0,1,.1.2v1.6h0a1.08,1.08,0,0,0-1,.8c-.1.5.1.8.6.8a1.08,1.08,0,0,0,1-.8V42.3c0-.1-.1-.2-.2-.3a.37.37,0,0,0-.3-.1l-3.6,1c-.2,0-.3.2-.3.4v2.8h0a1.08,1.08,0,0,0-1,.8A.56.56,0,0,0,54.6,47.6Z" transform="translate(-33.9 -19)"/><path class="cls-1" d="M75.9,47.6a1.08,1.08,0,0,0,1-.8V44.5h0v-.2a.22.22,0,0,1,.2-.2l2.7-.7H80a.35.35,0,0,1,.1.2v1.6h0a1.08,1.08,0,0,0-1,.8c-.1.5.1.8.6.8a1.08,1.08,0,0,0,1-.8V42.3c0-.1-.1-.2-.2-.3a.37.37,0,0,0-.3-.1l-3.6,1c-.2,0-.3.2-.3.4v2.8h0a1.08,1.08,0,0,0-1,.8C75.1,47.3,75.4,47.6,75.9,47.6Z" transform="translate(-33.9 -19)"/><path class="cls-1" d="M40,38.8A8.31,8.31,0,0,1,34.8,40c0,.4.6,2.3,3.3,3.5A20.74,20.74,0,0,0,45,44.7V32.8A13.94,13.94,0,0,1,40,38.8Zm4.1,1.1h-.9v.9h-.7v-.9h-.9v-.7h.9v-.9h.7v.9h.9Z" transform="translate(-33.9 -19)"/><circle class="cls-1" cx="0.6" cy="20.1" r="0.6"/><polygon class="cls-1" points="56.2 25.7 56.2 23.5 60 25.7 56.2 25.7"/></svg>